<svg id="Capa_1" data-name="Capa 1" xmlns="http://www.w3.org/2000/svg" width="352" height="164" viewBox="0 0 352 164"><defs><style>.cls-1,.cls-4{fill:#003049;}.cls-2,.cls-3{fill:#00557e;}.cls-3,.cls-4{fill-rule:evenodd;}</style></defs><title>fix inc</title><path class="cls-1" d="M152.12,78.61c-2.37,0-3.42-1-3.42-3.42V13.68c0-2.37,1.05-3.42,3.42-3.42h42.33c2.38,0,3.42,1.05,3.42,3.42V25c0,2.37-1,3.41-3.42,3.41h-24.2v9.88h16.52c2.37,0,3.41,1,3.41,3.41V53.07c0,2.38-1,3.42-3.41,3.42H170.25v18.7c0,2.37-1,3.42-3.42,3.42Z"/><path class="cls-1" d="M200.78,75.19V63.89c0-2.37,1-3.41,3.41-3.41h9.4V28.58h-9.4c-2.37,0-3.41-1-3.41-3.41V13.68c0-2.37,1-3.42,3.41-3.42h40.44c2.37,0,3.42,1.05,3.42,3.42V25.17c0,2.37-1.05,3.41-3.42,3.41h-9.21v31.9h9.21c2.37,0,3.42,1,3.42,3.41v11.3c0,2.37-1.05,3.42-3.42,3.42H204.19C201.82,78.61,200.78,77.56,200.78,75.19Z"/><path class="cls-1" d="M270,78.61H255.59c-2.37,0-3.41-1-3.41-3.42V65c0-5.88.76-7.78,3.6-11.67L263.47,43l-7.69-10.34c-2.94-3.9-3.6-5.8-3.6-11.68V13.68c0-2.37,1-3.42,3.41-3.42h14.62c2.38,0,3.42,1.05,3.42,3.42v6.55a6.68,6.68,0,0,0,.85,4l4.18,6c.67,1,1.23,1.61,2.28,1.61h1.14c1,0,1.52-.57,2.28-1.61l4.27-6a6.68,6.68,0,0,0,.85-4V13.68c0-2.37,1-3.42,3.42-3.42h14.43c2.37,0,3.41,1.05,3.41,3.42V21c0,5.88-.75,7.78-3.6,11.68l-7.69,10.44,7.69,10.25c2.94,3.89,3.6,5.79,3.6,11.67V75.19c0,2.37-1,3.42-3.41,3.42H292.9c-2.37,0-3.42-1-3.42-3.42v-9.4a6.11,6.11,0,0,0-.85-4l-4.18-6c-.76-1.14-1.23-1.62-2.28-1.62h-1.33c-1,0-1.51.48-2.27,1.62l-4.28,6a6.17,6.17,0,0,0-.85,4v9.4C273.44,77.56,272.4,78.61,270,78.61Z"/><path class="cls-1" d="M148.86,150.32V139c0-2.37,1-3.41,3.42-3.41h9.4v-31.9h-9.4c-2.38,0-3.42-1-3.42-3.41V88.81c0-2.37,1-3.42,3.42-3.42h40.44c2.37,0,3.41,1,3.41,3.42V100.3c0,2.37-1,3.41-3.41,3.41h-9.21v31.9h9.21c2.37,0,3.41,1,3.41,3.41v11.3c0,2.37-1,3.42-3.41,3.42H152.28C149.9,153.74,148.86,152.69,148.86,150.32Z"/><path class="cls-1" d="M204.07,153.74c-2.38,0-3.42-1.05-3.42-3.42V88.81c0-2.37,1-3.42,3.42-3.42h9.87a6.46,6.46,0,0,1,5.6,2.57L238,109V88.81c0-2.37,1-3.42,3.41-3.42h14.24c2.37,0,3.42,1,3.42,3.42v61.51c0,2.37-1,3.42-3.42,3.42H241.37c-2.37,0-3.41-1.05-3.41-3.42V138.64L221.72,119v31.32c0,2.37-1,3.42-3.41,3.42Z"/><path class="cls-1" d="M287.29,153.74c-16,0-23.35-6.17-23.35-19.37V104.85c0-13.29,7.4-19.46,23.35-19.46h23.16c2.37,0,3.41,1,3.41,3.42V100.3c0,2.37-1,3.41-3.41,3.41H291.37c-4,0-5.79,1.52-5.79,4.75v22.59c0,3.13,1.8,4.56,5.79,4.56h19.08c2.37,0,3.41,1,3.41,3.41v11.3c0,2.37-1,3.42-3.41,3.42Z"/><path class="cls-2" d="M322.91,153.74c-2.37,0-3.42-1.05-3.42-3.42V131.05c0-2.47,1.05-3.42,3.42-3.42h19.17c2.38,0,3.42,1,3.42,3.42v19.27c0,2.37-1,3.42-3.42,3.42Z"/><path class="cls-3" d="M89.73,30.77l7.53,3,12-9a5.9,5.9,0,0,1,7,.5l11,11a5.36,5.36,0,0,1,.5,7l-8.52,12.53,3,7.53,15,2.5c2.51,0,4.51,2.51,4.51,5V86.43A5.87,5.87,0,0,1,137.37,92l-15,2.5-3,7.52,9,12a5.9,5.9,0,0,1-.5,7l-11,11a5.36,5.36,0,0,1-7,.5L97.26,124l-7.53,3-2.5,15a5.88,5.88,0,0,1-5.52,4.51H66.17c-2.51,0-5-2-5-4.51l-2.5-15-7.52-3-12.54,8.52a5.36,5.36,0,0,1-7-.5l-11-11a5.26,5.26,0,0,1-.5-6.52l9-12.54a23.58,23.58,0,0,1-3-7.52L11,92A5.88,5.88,0,0,1,6.5,86.43V70.89c0-2.51,2-5,4.51-5l15.05-2.5a19.87,19.87,0,0,1,3-7.53L20,43.31c-1.51-2-1-5,1-7l11-11a5.24,5.24,0,0,1,6.52-.5l12.54,9,7.52-3,2.5-15c0-2.51,2.51-4.51,5-4.51H81.71a5.87,5.87,0,0,1,5.52,4.51Zm-15.54,11a37.1,37.1,0,1,1-37.1,37.1A37,37,0,0,1,74.19,41.81Z"/><path class="cls-4" d="M74.19,60.86a18,18,0,1,1-18,18A18,18,0,0,1,74.19,60.86Z"/></svg>