<svg id="Capa_1" data-name="Capa 1" xmlns="http://www.w3.org/2000/svg" width="291" height="118" viewBox="0 0 291 118"><defs><style>.cls-1,.cls-3{fill:#00557e;}.cls-2,.cls-4{fill:#003049;}.cls-3,.cls-4{fill-rule:evenodd;}</style></defs><title>fix inc</title><path class="cls-1" d="M254,104.74c-3.19,0-4.59-1.41-4.59-4.6V74.24c0-3.32,1.4-4.6,4.59-4.6h25.78c3.19,0,4.59,1.28,4.59,4.6v25.9c0,3.19-1.4,4.6-4.59,4.6Z"/><path class="cls-2" d="M112.1,104.74c-3.19,0-4.59-1.41-4.59-4.6V17.45c0-3.19,1.4-4.59,4.59-4.59H169c3.2,0,4.6,1.4,4.6,4.59V32.64c0,3.19-1.4,4.59-4.6,4.59H136.47V50.5h22.21c3.19,0,4.59,1.41,4.59,4.6V70.41c0,3.19-1.4,4.59-4.59,4.59H136.47v25.14c0,3.19-1.4,4.6-4.59,4.6Z"/><path class="cls-3" d="M63.18,26.43l5.11,2.05,8.18-6.14a4,4,0,0,1,4.77.34l7.49,7.5A3.64,3.64,0,0,1,89.08,35l-5.8,8.52,2,5.11,10.22,1.7a3.37,3.37,0,0,1,3.07,3.41V64.25A4,4,0,0,1,95.55,68L85.33,69.71l-2,5.11L89.42,83a4,4,0,0,1-.34,4.77l-7.5,7.5a3.65,3.65,0,0,1-4.77.34l-8.52-5.79-5.11,2-1.7,10.23a4,4,0,0,1-3.75,3.06H47.16a3.35,3.35,0,0,1-3.4-3.06L42.05,91.85l-5.11-2L28.42,95.6a3.66,3.66,0,0,1-4.77-.34l-7.49-7.5a3.54,3.54,0,0,1-.34-4.42L22,74.82a16.17,16.17,0,0,1-2-5.11L9.68,68a4,4,0,0,1-3.06-3.75V53.69a3.36,3.36,0,0,1,3.06-3.41l10.23-1.7a13.46,13.46,0,0,1,2-5.11L15.82,35a3.7,3.7,0,0,1,.68-4.77L24,22.68a3.58,3.58,0,0,1,4.43-.34l8.52,6.14,5.11-2.05,1.71-10.22a3.36,3.36,0,0,1,3.4-3.07H57.73a4,4,0,0,1,3.75,3.07Zm-10.56,7.5A25.22,25.22,0,1,1,27.4,59.14,25.15,25.15,0,0,1,52.62,33.93Z"/><path class="cls-4" d="M52.62,46.88A12.27,12.27,0,1,1,40.35,59.14,12.21,12.21,0,0,1,52.62,46.88Z"/><path class="cls-2" d="M178.72,100.14V85c0-3.19,1.4-4.6,4.6-4.6H196V37.49H183.32c-3.2,0-4.6-1.41-4.6-4.6V17.45c0-3.19,1.4-4.59,4.6-4.59h54.36c3.19,0,4.59,1.4,4.59,4.59V32.89c0,3.19-1.4,4.6-4.59,4.6H225.3V80.36h12.38c3.19,0,4.59,1.41,4.59,4.6v15.18c0,3.19-1.4,4.6-4.59,4.6H183.32C180.12,104.74,178.72,103.33,178.72,100.14Z"/></svg>