<svg id="Capa_1" data-name="Capa 1" xmlns="http://www.w3.org/2000/svg" width="622" height="118" viewBox="0 0 622 118"><defs><style>.cls-1,.cls-4{fill:#003049;}.cls-2,.cls-3{fill:#00557e;}.cls-3,.cls-4{fill-rule:evenodd;}</style></defs><title>fix inc</title><path class="cls-1" d="M111.6,104.74c-3.19,0-4.59-1.41-4.59-4.6V17.45c0-3.19,1.4-4.59,4.59-4.59h56.91c3.2,0,4.6,1.4,4.6,4.59V32.64c0,3.19-1.4,4.59-4.6,4.59H136V50.5h22.21c3.19,0,4.59,1.41,4.59,4.6V70.41c0,3.19-1.4,4.59-4.59,4.59H136v25.14c0,3.19-1.4,4.6-4.59,4.6Z"/><path class="cls-1" d="M177,100.14V85c0-3.19,1.41-4.6,4.6-4.6h12.63V37.49H181.61c-3.19,0-4.6-1.41-4.6-4.6V17.45c0-3.19,1.41-4.59,4.6-4.59H236c3.19,0,4.59,1.4,4.59,4.59V32.89c0,3.19-1.4,4.6-4.59,4.6H223.59V80.36H236c3.19,0,4.59,1.41,4.59,4.6v15.18c0,3.19-1.4,4.6-4.59,4.6H181.61C178.42,104.74,177,103.33,177,100.14Z"/><path class="cls-1" d="M270.1,104.74H250.71c-3.19,0-4.6-1.41-4.6-4.6V86.49c0-7.91,1-10.47,4.85-15.7L261.3,56.88,251,43c-4-5.23-4.85-7.78-4.85-15.69V17.45c0-3.19,1.41-4.59,4.6-4.59h19.65c3.19,0,4.59,1.4,4.59,4.59v8.81c0,1.78,0,3.7,1.15,5.36l5.62,8c.89,1.4,1.66,2.17,3.06,2.17h1.53c1.41,0,2-.77,3.06-2.17l5.75-8c1.14-1.66,1.14-3.58,1.14-5.36V17.45c0-3.19,1.41-4.59,4.6-4.59h19.39c3.2,0,4.6,1.4,4.6,4.59v9.83c0,7.91-1,10.46-4.85,15.69L309.66,57,320,70.79c4,5.23,4.85,7.79,4.85,15.7v13.65c0,3.19-1.4,4.6-4.6,4.6H300.86c-3.19,0-4.6-1.41-4.6-4.6V87.51c0-1.79.13-3.57-1.14-5.36l-5.62-8c-1-1.53-1.66-2.17-3.06-2.17h-1.79c-1.4,0-2,.64-3.06,2.17l-5.74,8c-1.28,1.79-1.15,3.57-1.15,5.36v12.63C274.7,103.33,273.3,104.74,270.1,104.74Z"/><path class="cls-1" d="M355.22,100.14V85c0-3.19,1.4-4.6,4.6-4.6h12.63V37.49H359.82c-3.2,0-4.6-1.41-4.6-4.6V17.45c0-3.19,1.4-4.59,4.6-4.59h54.36c3.19,0,4.59,1.4,4.59,4.59V32.89c0,3.19-1.4,4.6-4.59,4.6H401.8V80.36h12.38c3.19,0,4.59,1.41,4.59,4.6v15.18c0,3.19-1.4,4.6-4.59,4.6H359.82C356.62,104.74,355.22,103.33,355.22,100.14Z"/><path class="cls-1" d="M429.44,104.74c-3.19,0-4.6-1.41-4.6-4.6V17.45c0-3.19,1.41-4.59,4.6-4.59h13.27a8.69,8.69,0,0,1,7.53,3.44L475,44.63V17.45c0-3.19,1.4-4.59,4.59-4.59h19.14c3.19,0,4.59,1.4,4.59,4.59v82.69c0,3.19-1.4,4.6-4.59,4.6H479.59c-3.19,0-4.59-1.41-4.59-4.6V84.45L453.17,58v42.11c0,3.19-1.4,4.6-4.59,4.6Z"/><path class="cls-1" d="M541.31,104.74c-21.43,0-31.39-8.3-31.39-26V39c0-17.87,10-26.16,31.39-26.16h31.14c3.19,0,4.59,1.4,4.59,4.59V32.89c0,3.19-1.4,4.6-4.59,4.6H546.8c-5.36,0-7.78,2-7.78,6.38V74.24c0,4.21,2.42,6.12,7.78,6.12h25.65c3.19,0,4.59,1.41,4.59,4.6v15.18c0,3.19-1.4,4.6-4.59,4.6Z"/><path class="cls-2" d="M588.51,104.74c-3.19,0-4.59-1.41-4.59-4.6V74.24c0-3.32,1.4-4.6,4.59-4.6h25.78c3.19,0,4.59,1.28,4.59,4.6v25.9c0,3.19-1.4,4.6-4.59,4.6Z"/><path class="cls-3" d="M59.68,26.43l5.11,2.05L73,22.34a4,4,0,0,1,4.77.34l7.49,7.5A3.64,3.64,0,0,1,85.58,35l-5.8,8.52,2,5.11,10.22,1.7a3.37,3.37,0,0,1,3.07,3.41V64.25A4,4,0,0,1,92.05,68L81.83,69.71l-2,5.11L85.92,83a4,4,0,0,1-.34,4.77l-7.5,7.5a3.65,3.65,0,0,1-4.77.34l-8.52-5.79-5.11,2L58,102.08a4,4,0,0,1-3.75,3.06H43.66a3.35,3.35,0,0,1-3.4-3.06L38.55,91.85l-5.11-2L24.92,95.6a3.66,3.66,0,0,1-4.77-.34l-7.49-7.5a3.54,3.54,0,0,1-.34-4.42l6.13-8.52a16.17,16.17,0,0,1-2-5.11L6.18,68a4,4,0,0,1-3.06-3.75V53.69a3.36,3.36,0,0,1,3.06-3.41l10.23-1.7a13.46,13.46,0,0,1,2-5.11L12.32,35A3.7,3.7,0,0,1,13,30.18l7.49-7.5a3.58,3.58,0,0,1,4.43-.34l8.52,6.14,5.11-2.05,1.71-10.22a3.36,3.36,0,0,1,3.4-3.07H54.23A4,4,0,0,1,58,16.21Zm-10.56,7.5A25.22,25.22,0,1,1,23.9,59.14,25.15,25.15,0,0,1,49.12,33.93Z"/><path class="cls-4" d="M49.12,46.88A12.27,12.27,0,1,1,36.85,59.14,12.21,12.21,0,0,1,49.12,46.88Z"/></svg>